<?xml version="1.0" encoding="UTF-8"?>
<svg id="Layer_1" data-name="Layer 1" xmlns="http://www.w3.org/2000/svg" viewBox="0 0 320 297.35">
  <defs>
    <style>
      .cls-1 {
        fill: #000;
      }

      .cls-1, .cls-2 {
        stroke: #000;
        stroke-miterlimit: 10;
      }

      .cls-2 {
        fill: none;
      }
    </style>
  </defs>
  <path class="cls-1" d="M158.61.5c-18.23,0-33,25.37-33,56.67s14.77,56.67,33,56.67,33-25.37,33-56.67S176.83.5,158.61.5ZM158.61,104.05c-5.69,0-10.31-4.62-10.31-10.31s4.62-10.31,10.31-10.31,10.31,4.62,10.31,10.31-4.62,10.31-10.31,10.31Z"/>
  <path class="cls-1" d="M300.79,75.72c-15.22-15.22-48.46-6.66-74.24,19.12-25.78,25.78-34.34,59.01-19.12,74.24,15.22,15.22,48.46,6.66,74.24-19.12,25.78-25.78,34.34-59.01,19.12-74.24ZM213.92,161.7c-4.03-4.03-4.03-10.55,0-14.58s10.55-4.03,14.58,0c4.03,4.03,4.03,10.55,0,14.58s-10.55,4.03-14.58,0Z"/>
  <path class="cls-1" d="M17.52,75.72c15.22-15.22,48.46-6.66,74.24,19.12,25.78,25.78,34.34,59.01,19.12,74.24-15.22,15.22-48.46,6.66-74.24-19.12C10.86,124.18,2.3,90.94,17.52,75.72ZM104.4,161.7c4.03-4.03,4.03-10.55,0-14.58s-10.55-4.03-14.58,0c-4.03,4.03-4.03,10.55,0,14.58s10.55,4.03,14.58,0Z"/>
  <line class="cls-2" y1="296.85" x2="320" y2="296.85"/>
</svg>